<?xml version="1.0" encoding="UTF-8"?>
<svg id="Camada_2" data-name="Camada 2" xmlns="http://www.w3.org/2000/svg" viewBox="0 0 202.41 106.28">
  <defs>
    <style>
      .cls-1 {
        fill: #0090f9;
      }

      .cls-2 {
        fill: #fff;
      }
    </style>
  </defs>
  <g id="Camada_2-2" data-name="Camada 2">
    <g>
      <path class="cls-2" d="M38.05,0H0v106.28h17.05v-49.65h21.01c15.64,0,28.32-12.68,28.32-28.32S53.69,0,38.05,0ZM38.05,42.68h-21.01V15.84h21.01c7.41,0,13.42,6.01,13.42,13.42s-6.01,13.42-13.42,13.42Z"/>
      <polygon class="cls-1" points="163.53 2.81 132.67 71.19 99.34 .3 82.52 .3 82.52 106.17 99.34 106.17 99.34 40.83 125.39 103.6 139.94 103.6 163.53 44.77 163.53 106.17 180.34 106.17 180.34 2.31 163.53 2.31 163.53 2.81"/>
      <circle class="cls-1" cx="195.21" cy="52.31" r="7.2"/>
    </g>
  </g>
</svg>