<?xml version="1.0" encoding="UTF-8"?>
<svg id="Camada_2" data-name="Camada 2" xmlns="http://www.w3.org/2000/svg" viewBox="0 0 612.33 158.59">
  <defs>
    <style>
      .cls-1 {
        fill: #0090f9;
      }

      .cls-2 {
        fill: #fff;
      }

      .cls-3 {
        fill: #008ef7;
      }
    </style>
  </defs>
  <g id="Camada_2-2" data-name="Camada 2">
    <g>
      <g>
        <path class="cls-2" d="M177.54,53.89h-18.11v51.59h8.11v-24.63h10c7.45,0,13.48-6.03,13.48-13.48s-6.03-13.48-13.48-13.48ZM177.54,74.21h-10v-12.78h10c3.53,0,6.39,2.86,6.39,6.39s-2.86,6.39-6.39,6.39Z"/>
        <polygon class="cls-2" points="239.53 96.97 222.96 96.97 222.96 53.49 214.84 53.49 214.84 96.97 214.84 105.08 222.96 105.08 239.53 105.08 239.53 96.97"/>
        <path class="cls-2" d="M291.37,87.69c0,4.28-2.41,8.29-6.33,10.01-2.45,1.07-5.1,1.15-7.59.22-4.01-1.5-6.55-5.49-6.55-9.77v-34.19h-8.11v37.51c0,2.36.77,4.67,2.25,6.52,8.26,10.34,24.42,10.06,32.31-.56,1.4-1.88,2.13-4.19,2.13-6.53v-36.94h-8.11v33.72Z"/>
        <path class="cls-2" d="M349.63,92.63c0-3.61-1.46-6.89-3.83-9.26l-13.33-13.36c-1.04-1.04-1.68-2.48-1.68-4.07,0-3.18,2.57-5.76,5.75-5.76s5.76,2.58,5.76,5.76h7.33c0-7.23-5.86-13.09-13.09-13.09s-13.09,5.86-13.09,13.09c0,3.61,1.47,6.89,3.84,9.26l13.32,13.36c1.04,1.04,1.68,2.48,1.68,4.07,0,3.18-2.58,5.75-5.75,5.75s-5.75-2.58-5.75-5.75h-7.34c0,7.23,5.86,13.09,13.09,13.09s13.09-5.86,13.09-13.09Z"/>
      </g>
      <g>
        <polygon class="cls-1" points="447.33 53.37 452.41 53.37 461.57 44.99 453.92 44.99 447.33 53.37"/>
        <g>
          <polygon class="cls-1" points="410.88 52.54 395 87.72 377.86 52.25 369.21 52.25 369.21 106.17 377.86 106.17 377.86 72.1 391.26 104.39 398.75 104.39 410.88 74.13 410.88 106.2 419.53 106.2 419.53 52.28 410.88 52.28 410.88 52.54"/>
          <rect class="cls-1" x="447.24" y="55.44" width="7.19" height="50.72"/>
          <rect class="cls-1" x="529.4" y="53.16" width="7.19" height="52.92"/>
          <polygon class="cls-1" points="583.14 52.17 559.02 106.02 567.67 106.02 585.54 64.49 602.69 106.31 611.34 106.31 588.33 52.17 583.14 52.17"/>
          <circle class="cls-1" cx="608.01" cy="77.82" r="4.32"/>
          <path class="cls-1" d="M495.21,58.67c-5.04-4.63-12.16-6.95-21.36-6.95h-10.74v8.84h10.5c5.66,0,11.28.66,14.59,3.46,3.67,3.1,6.21,8.75,6.21,14.61s-1.88,11.81-5.36,14.82c-3.37,2.91-8.94,4.05-13.85,4.05h-12.09v8.84h13.06c5.21,0,9.85-1.11,13.89-3.33,4.05-2.22,7.17-5.44,9.38-9.63,2.21-4.2,3.31-9.12,3.31-14.75,0-8.66-2.52-15.3-7.56-19.94Z"/>
        </g>
      </g>
      <g>
        <path class="cls-2" d="M93.97,80.84c.56-10.65-1.63-20.86-5.19-30.83-3.87-10.82-9.21-20.86-15.69-30.32-2.13-3.11-3.3-3.03-5.42.07-5.01,7.31-9.24,15.03-12.84,23.11-4.13,9.28-7.02,18.92-8,29.05-.38,3.88-.42,7.79-.49,11.69-.02,1.41-.58,2.17-1.78,2.87-2.24,1.29-4.34,2.8-6.52,4.2-1.8,1.16-2.44.84-2.5-1.26-.14-4.66-.48-9.33-.31-13.98.3-8.2,1.95-16.22,4.35-24.04,3.29-10.71,7.93-20.88,13.85-30.37,4.18-6.7,8.69-13.23,13.98-19.16,2.13-2.38,3.31-2.52,5.44-.22,9.78,10.58,17.03,22.76,23.1,35.78,5.31,11.37,8.03,23.37,9.57,35.69.86,6.89.19,13.75-.78,20.62-1.38,9.87-4.18,19.31-7.97,28.49-.99,2.39-2.22,4.67-3.27,7.04-1.02,2.32-.41,3.79,2,4.62,1.92.67,3.9,1.11,5.84,1.73,7.06,2.27,14.1,4.58,21.15,6.84,4.35,1.4,8.72,2.73,13.07,4.12.77.24,1.53.55,2.24.94,2.69,1.48,3.5,3.28,2.67,5.77-1.12,3.34-3.12,4.94-6.14,4.25-3.85-.88-7.62-2.11-11.39-3.3-14.09-4.44-28.16-8.92-42.24-13.39-.92-.29-1.84-.58-2.75-.91-1.73-.64-2.02-1.52-1.13-3.17,2.28-4.24,4.67-8.44,6.8-12.75,5.27-10.68,8.85-21.91,10.3-33.74.38-3.1.06-6.28.06-9.42h0Z"/>
        <path class="cls-3" d="M0,152.14c.27-.84.49-2.11,1.05-3.22,4.88-9.66,10.32-19.01,16.91-27.6,4.62-6.02,9.51-11.89,14.68-17.44,6.6-7.08,14.34-12.73,23.51-16.15,10.17-3.78,20.3-3.32,30.33.62,1.14.45,1.33,1.44,1.2,2.38-.38,2.76-.85,5.51-1.4,8.24-.23,1.1-1.04,1.12-2.03.72-2.48-1.02-4.94-2.21-7.52-2.86-7.42-1.89-14.31-.22-20.97,3.31-8.32,4.41-14.96,10.75-21.07,17.73-7.05,8.05-12.58,17.18-18.38,26.11-2.03,3.14-3.6,6.57-5.43,9.84-.59,1.05-1.27,2.09-2.07,2.99-1.21,1.37-2.78,2.14-4.63,1.63-2.05-.57-3.41-1.95-3.92-4.06-.14-.59-.15-1.21-.27-2.24h0Z"/>
        <path class="cls-2" d="M13.13,153.47c1.85-4.64,5-10.44,9.97-12.35,7.42-2.59,14.95-4.85,22.39-7.4,5.5-1.01-1.35-9.64-2.06-13.08-1.61-4.1,4.17-6.14,6.22-8.93.75-.71,1.61.19,2.01.96,4.29,8.15,7.97,15.79,12.23,23.96,1.12,2.16,1.1,2.45-1.2,3.21-15.36,5.07-30.72,10.14-46.09,15.21-1.76.51-3.74,1.5-3.47-1.58h0Z"/>
        <path class="cls-3" d="M108.99,105.05c1.27,1.13,2.4,1.98,3.32,3,8.8,9.74,16.37,20.37,22.7,31.87.61,1.11,1.3,2.19,1.79,3.35.21.48.12,1.18-.08,1.69-.06.16-.93.14-1.38.01-3.64-1.09-7.27-2.21-10.9-3.34-1.72-.54-2.99-1.64-3.92-3.18-4.11-6.82-8.57-13.41-13.85-19.4-.86-.97-1.1-1.96-.75-3.21.85-3.07,1.63-6.17,2.45-9.25.1-.38.29-.74.61-1.54Z"/>
      </g>
    </g>
  </g>
</svg>