<?xml version="1.0" encoding="UTF-8"?>
<svg xmlns="http://www.w3.org/2000/svg" viewBox="0 0 138 159">
  <defs>
    <style>
      .pm-w { fill: #ffffff; }
      .pm-c { fill: #008ef7; }
    </style>
  </defs>
  <path class="pm-w" d="M93.97,80.84c.56-10.65-1.63-20.86-5.19-30.83-3.87-10.82-9.21-20.86-15.69-30.32-2.13-3.11-3.3-3.03-5.42.07-5.01,7.31-9.24,15.03-12.84,23.11-4.13,9.28-7.02,18.92-8,29.05-.38,3.88-.42,7.79-.49,11.69-.02,1.41-.58,2.17-1.78,2.87-2.24,1.29-4.34,2.8-6.52,4.2-1.8,1.16-2.44.84-2.5-1.26-.14-4.66-.48-9.33-.31-13.98.3-8.2,1.95-16.22,4.35-24.04,3.29-10.71,7.93-20.88,13.85-30.37,4.18-6.7,8.69-13.23,13.98-19.16,2.13-2.38,3.31-2.52,5.44-.22,9.78,10.58,17.03,22.76,23.1,35.78,5.31,11.37,8.03,23.37,9.57,35.69.86,6.89.19,13.75-.78,20.62-1.38,9.87-4.18,19.31-7.97,28.49-.99,2.39-2.22,4.67-3.27,7.04-1.02,2.32-.41,3.79,2,4.62,1.92.67,3.9,1.11,5.84,1.73,7.06,2.27,14.1,4.58,21.15,6.84,4.35,1.4,8.72,2.73,13.07,4.12.77.24,1.53.55,2.24.94,2.69,1.48,3.5,3.28,2.67,5.77-1.12,3.34-3.12,4.94-6.14,4.25-3.85-.88-7.62-2.11-11.39-3.3-14.09-4.44-28.16-8.92-42.24-13.39-.92-.29-1.84-.58-2.75-.91-1.73-.64-2.02-1.52-1.13-3.17,2.28-4.24,4.67-8.44,6.8-12.75,5.27-10.68,8.85-21.91,10.3-33.74.38-3.1.06-6.28.06-9.42h0Z"/>
  <path class="pm-c" d="M0,152.14c.27-.84.49-2.11,1.05-3.22,4.88-9.66,10.32-19.01,16.91-27.6,4.62-6.02,9.51-11.89,14.68-17.44,6.6-7.08,14.34-12.73,23.51-16.15,10.17-3.78,20.3-3.32,30.33.62,1.14.45,1.33,1.44,1.2,2.38-.38,2.76-.85,5.51-1.4,8.24-.23,1.1-1.04,1.12-2.03.72-2.48-1.02-4.94-2.21-7.52-2.86-7.42-1.89-14.31-.22-20.97,3.31-8.32,4.41-14.96,10.75-21.07,17.73-7.05,8.05-12.58,17.18-18.38,26.11-2.03,3.14-3.6,6.57-5.43,9.84-.59,1.05-1.27,2.09-2.07,2.99-1.21,1.37-2.78,2.14-4.63,1.63-2.05-.57-3.41-1.95-3.92-4.06-.14-.59-.15-1.21-.27-2.24h0Z"/>
  <path class="pm-w" d="M13.13,153.47c1.85-4.64,5-10.44,9.97-12.35,7.42-2.59,14.95-4.85,22.39-7.4,5.5-1.01-1.35-9.64-2.06-13.08-1.61-4.1,4.17-6.14,6.22-8.93.75-.71,1.61.19,2.01.96,4.29,8.15,7.97,15.79,12.23,23.96,1.12,2.16,1.1,2.45-1.2,3.21-15.36,5.07-30.72,10.14-46.09,15.21-1.76.51-3.74,1.5-3.47-1.58h0Z"/>
  <path class="pm-c" d="M108.99,105.05c1.27,1.13,2.4,1.98,3.32,3,8.8,9.74,16.37,20.37,22.7,31.87.61,1.11,1.3,2.19,1.79,3.35.21.48.12,1.18-.08,1.69-.06.16-.93.14-1.38.01-3.64-1.09-7.27-2.21-10.9-3.34-1.72-.54-2.99-1.64-3.92-3.18-4.11-6.82-8.57-13.41-13.85-19.4-.86-.97-1.1-1.96-.75-3.21.85-3.07,1.63-6.17,2.45-9.25.1-.38.29-.74.61-1.54Z"/>
</svg>
